# APEX V26 Formula car | meters | Y up | +Z forward
mtllib apex-v26.mtl
o V26
v -0.85 0.25 -1.9000000000000001
v 0.85 0.25 -1.9000000000000001
v 0.85 0.25 1.8
v -0.85 0.25 1.8
usemtl material_0
f 1 2 3 4
v -0.85 0.17 -1.9000000000000001
v 0.85 0.17 -1.9000000000000001
v 0.85 0.25 -1.9000000000000001
v -0.85 0.25 -1.9000000000000001
usemtl material_1
f 5 6 7 8
v -0.85 0.17 1.8
v -0.85 0.25 1.8
v 0.85 0.25 1.8
v 0.85 0.17 1.8
usemtl material_2
f 9 10 11 12
v -0.85 0.17 -1.9000000000000001
v -0.85 0.25 -1.9000000000000001
v -0.85 0.25 1.8
v -0.85 0.17 1.8
usemtl material_3
f 13 14 15 16
v 0.85 0.17 -1.9000000000000001
v 0.85 0.17 1.8
v 0.85 0.25 1.8
v 0.85 0.25 -1.9000000000000001
usemtl material_4
f 17 18 19 20
v -0.335 0.8500000000000001 -1.5
v 0.335 0.8500000000000001 -1.5
v 0.335 0.8500000000000001 0.7999999999999999
v -0.335 0.8500000000000001 0.7999999999999999
usemtl material_5
f 21 22 23 24
v -0.335 0.3 -1.5
v 0.335 0.3 -1.5
v 0.335 0.8500000000000001 -1.5
v -0.335 0.8500000000000001 -1.5
usemtl material_6
f 25 26 27 28
v -0.335 0.3 0.7999999999999999
v -0.335 0.8500000000000001 0.7999999999999999
v 0.335 0.8500000000000001 0.7999999999999999
v 0.335 0.3 0.7999999999999999
usemtl material_7
f 29 30 31 32
v -0.335 0.3 -1.5
v -0.335 0.8500000000000001 -1.5
v -0.335 0.8500000000000001 0.7999999999999999
v -0.335 0.3 0.7999999999999999
usemtl material_8
f 33 34 35 36
v 0.335 0.3 -1.5
v 0.335 0.3 0.7999999999999999
v 0.335 0.8500000000000001 0.7999999999999999
v 0.335 0.8500000000000001 -1.5
usemtl material_9
f 37 38 39 40
v -0.875 0.65 -1.5
v -0.345 0.65 -1.5
v -0.345 0.65 0.30000000000000004
v -0.875 0.65 0.30000000000000004
usemtl material_5
f 41 42 43 44
v -0.875 0.28 -1.5
v -0.345 0.28 -1.5
v -0.345 0.65 -1.5
v -0.875 0.65 -1.5
usemtl material_6
f 45 46 47 48
v -0.875 0.28 0.30000000000000004
v -0.875 0.65 0.30000000000000004
v -0.345 0.65 0.30000000000000004
v -0.345 0.28 0.30000000000000004
usemtl material_7
f 49 50 51 52
v -0.875 0.28 -1.5
v -0.875 0.65 -1.5
v -0.875 0.65 0.30000000000000004
v -0.875 0.28 0.30000000000000004
usemtl material_8
f 53 54 55 56
v -0.345 0.28 -1.5
v -0.345 0.28 0.30000000000000004
v -0.345 0.65 0.30000000000000004
v -0.345 0.65 -1.5
usemtl material_9
f 57 58 59 60
v 0.345 0.65 -1.5
v 0.875 0.65 -1.5
v 0.875 0.65 0.30000000000000004
v 0.345 0.65 0.30000000000000004
usemtl material_5
f 61 62 63 64
v 0.345 0.28 -1.5
v 0.875 0.28 -1.5
v 0.875 0.65 -1.5
v 0.345 0.65 -1.5
usemtl material_6
f 65 66 67 68
v 0.345 0.28 0.30000000000000004
v 0.345 0.65 0.30000000000000004
v 0.875 0.65 0.30000000000000004
v 0.875 0.28 0.30000000000000004
usemtl material_7
f 69 70 71 72
v 0.345 0.28 -1.5
v 0.345 0.65 -1.5
v 0.345 0.65 0.30000000000000004
v 0.345 0.28 0.30000000000000004
usemtl material_8
f 73 74 75 76
v 0.875 0.28 -1.5
v 0.875 0.28 0.30000000000000004
v 0.875 0.65 0.30000000000000004
v 0.875 0.65 -1.5
usemtl material_9
f 77 78 79 80
v -0.36 0.86 -1.5
v 0.36 0.86 -1.5
v 0.25 1.12 -0.4
v -0.25 1.12 -0.4
usemtl material_10
f 81 82 83 84
v -0.25 1.12 -0.4
v 0.25 1.12 -0.4
v 0.12 0.6 -1.95
v -0.12 0.6 -1.95
usemtl material_11
f 85 86 87 88
v -0.33 0.78 0.2
v 0.33 0.78 0.2
v 0.12 0.38 2.45
v -0.12 0.38 2.45
usemtl material_11
f 89 90 91 92
v -0.33 0.78 0.2
v -0.12 0.38 2.45
v -0.12 0.24 2.45
v -0.33 0.3 0.2
usemtl material_12
f 93 94 95 96
v 0.33 0.78 0.2
v 0.33 0.3 0.2
v 0.12 0.24 2.45
v 0.12 0.38 2.45
usemtl material_13
f 97 98 99 100
v -0.24 0.845 -0.325
v 0.24 0.845 -0.325
v 0.24 0.845 0.325
v -0.24 0.845 0.325
usemtl material_14
f 101 102 103 104
v -0.24 0.82 -0.325
v 0.24 0.82 -0.325
v 0.24 0.845 -0.325
v -0.24 0.845 -0.325
usemtl material_15
f 105 106 107 108
v -0.24 0.82 0.325
v -0.24 0.845 0.325
v 0.24 0.845 0.325
v 0.24 0.82 0.325
usemtl material_16
f 109 110 111 112
v -0.24 0.82 -0.325
v -0.24 0.845 -0.325
v -0.24 0.845 0.325
v -0.24 0.82 0.325
usemtl material_17
f 113 114 115 116
v 0.24 0.82 -0.325
v 0.24 0.82 0.325
v 0.24 0.845 0.325
v 0.24 0.845 -0.325
usemtl material_18
f 117 118 119 120
v -0.14 1.0899999999999999 -0.26
v 0.14 1.0899999999999999 -0.26
v 0.14 1.0899999999999999 0.020000000000000018
v -0.14 1.0899999999999999 0.020000000000000018
usemtl material_19
f 121 122 123 124
v -0.14 0.85 -0.26
v 0.14 0.85 -0.26
v 0.14 1.0899999999999999 -0.26
v -0.14 1.0899999999999999 -0.26
usemtl material_20
f 125 126 127 128
v -0.14 0.85 0.020000000000000018
v -0.14 1.0899999999999999 0.020000000000000018
v 0.14 1.0899999999999999 0.020000000000000018
v 0.14 0.85 0.020000000000000018
usemtl material_21
f 129 130 131 132
v -0.14 0.85 -0.26
v -0.14 1.0899999999999999 -0.26
v -0.14 1.0899999999999999 0.020000000000000018
v -0.14 0.85 0.020000000000000018
usemtl material_22
f 133 134 135 136
v 0.14 0.85 -0.26
v 0.14 0.85 0.020000000000000018
v 0.14 1.0899999999999999 0.020000000000000018
v 0.14 1.0899999999999999 -0.26
usemtl material_23
f 137 138 139 140
v -0.3125 1.025 -0.365
v -0.24750000000000003 1.025 -0.365
v -0.24750000000000003 1.025 0.485
v -0.3125 1.025 0.485
usemtl material_0
f 141 142 143 144
v -0.3125 0.96 -0.365
v -0.24750000000000003 0.96 -0.365
v -0.24750000000000003 1.025 -0.365
v -0.3125 1.025 -0.365
usemtl material_1
f 145 146 147 148
v -0.3125 0.96 0.485
v -0.3125 1.025 0.485
v -0.24750000000000003 1.025 0.485
v -0.24750000000000003 0.96 0.485
usemtl material_2
f 149 150 151 152
v -0.3125 0.96 -0.365
v -0.3125 1.025 -0.365
v -0.3125 1.025 0.485
v -0.3125 0.96 0.485
usemtl material_3
f 153 154 155 156
v -0.24750000000000003 0.96 -0.365
v -0.24750000000000003 0.96 0.485
v -0.24750000000000003 1.025 0.485
v -0.24750000000000003 1.025 -0.365
usemtl material_4
f 157 158 159 160
v 0.24750000000000003 1.025 -0.365
v 0.3125 1.025 -0.365
v 0.3125 1.025 0.485
v 0.24750000000000003 1.025 0.485
usemtl material_0
f 161 162 163 164
v 0.24750000000000003 0.96 -0.365
v 0.3125 0.96 -0.365
v 0.3125 1.025 -0.365
v 0.24750000000000003 1.025 -0.365
usemtl material_1
f 165 166 167 168
v 0.24750000000000003 0.96 0.485
v 0.24750000000000003 1.025 0.485
v 0.3125 1.025 0.485
v 0.3125 0.96 0.485
usemtl material_2
f 169 170 171 172
v 0.24750000000000003 0.96 -0.365
v 0.24750000000000003 1.025 -0.365
v 0.24750000000000003 1.025 0.485
v 0.24750000000000003 0.96 0.485
usemtl material_3
f 173 174 175 176
v 0.3125 0.96 -0.365
v 0.3125 0.96 0.485
v 0.3125 1.025 0.485
v 0.3125 1.025 -0.365
usemtl material_4
f 177 178 179 180
v -0.31 1.025 0.42500000000000004
v 0.31 1.025 0.42500000000000004
v 0.31 1.025 0.495
v -0.31 1.025 0.495
usemtl material_0
f 181 182 183 184
v -0.31 0.96 0.42500000000000004
v 0.31 0.96 0.42500000000000004
v 0.31 1.025 0.42500000000000004
v -0.31 1.025 0.42500000000000004
usemtl material_1
f 185 186 187 188
v -0.31 0.96 0.495
v -0.31 1.025 0.495
v 0.31 1.025 0.495
v 0.31 0.96 0.495
usemtl material_2
f 189 190 191 192
v -0.31 0.96 0.42500000000000004
v -0.31 1.025 0.42500000000000004
v -0.31 1.025 0.495
v -0.31 0.96 0.495
usemtl material_3
f 193 194 195 196
v 0.31 0.96 0.42500000000000004
v 0.31 0.96 0.495
v 0.31 1.025 0.495
v 0.31 1.025 0.42500000000000004
usemtl material_4
f 197 198 199 200
v -0.0225 1 0.4075
v 0.0225 1 0.4075
v 0.0225 1 0.4525
v -0.0225 1 0.4525
usemtl material_0
f 201 202 203 204
v -0.0225 0.72 0.4075
v 0.0225 0.72 0.4075
v 0.0225 1 0.4075
v -0.0225 1 0.4075
usemtl material_1
f 205 206 207 208
v -0.0225 0.72 0.4525
v -0.0225 1 0.4525
v 0.0225 1 0.4525
v 0.0225 0.72 0.4525
usemtl material_2
f 209 210 211 212
v -0.0225 0.72 0.4075
v -0.0225 1 0.4075
v -0.0225 1 0.4525
v -0.0225 0.72 0.4525
usemtl material_3
f 213 214 215 216
v 0.0225 0.72 0.4075
v 0.0225 0.72 0.4525
v 0.0225 1 0.4525
v 0.0225 1 0.4075
usemtl material_4
f 217 218 219 220
v -0.125 1.26 -0.8150000000000001
v 0.125 1.26 -0.8150000000000001
v 0.125 1.26 -0.545
v -0.125 1.26 -0.545
usemtl material_5
f 221 222 223 224
v -0.125 0.88 -0.8150000000000001
v 0.125 0.88 -0.8150000000000001
v 0.125 1.26 -0.8150000000000001
v -0.125 1.26 -0.8150000000000001
usemtl material_6
f 225 226 227 228
v -0.125 0.88 -0.545
v -0.125 1.26 -0.545
v 0.125 1.26 -0.545
v 0.125 0.88 -0.545
usemtl material_7
f 229 230 231 232
v -0.125 0.88 -0.8150000000000001
v -0.125 1.26 -0.8150000000000001
v -0.125 1.26 -0.545
v -0.125 0.88 -0.545
usemtl material_8
f 233 234 235 236
v 0.125 0.88 -0.8150000000000001
v 0.125 0.88 -0.545
v 0.125 1.26 -0.545
v 0.125 1.26 -0.8150000000000001
usemtl material_9
f 237 238 239 240
v -0.985 0.27 2.065
v 0.985 0.27 2.065
v 0.985 0.27 2.5349999999999997
v -0.985 0.27 2.5349999999999997
usemtl material_0
f 241 242 243 244
v -0.985 0.19 2.065
v 0.985 0.19 2.065
v 0.985 0.27 2.065
v -0.985 0.27 2.065
usemtl material_1
f 245 246 247 248
v -0.985 0.19 2.5349999999999997
v -0.985 0.27 2.5349999999999997
v 0.985 0.27 2.5349999999999997
v 0.985 0.19 2.5349999999999997
usemtl material_2
f 249 250 251 252
v -0.985 0.19 2.065
v -0.985 0.27 2.065
v -0.985 0.27 2.5349999999999997
v -0.985 0.19 2.5349999999999997
usemtl material_3
f 253 254 255 256
v 0.985 0.19 2.065
v 0.985 0.19 2.5349999999999997
v 0.985 0.27 2.5349999999999997
v 0.985 0.27 2.065
usemtl material_4
f 257 258 259 260
v -0.93 0.335 2.125
v 0.93 0.335 2.125
v 0.93 0.335 2.375
v -0.93 0.335 2.375
usemtl material_5
f 261 262 263 264
v -0.93 0.28 2.125
v 0.93 0.28 2.125
v 0.93 0.335 2.125
v -0.93 0.335 2.125
usemtl material_6
f 265 266 267 268
v -0.93 0.28 2.375
v -0.93 0.335 2.375
v 0.93 0.335 2.375
v 0.93 0.28 2.375
usemtl material_7
f 269 270 271 272
v -0.93 0.28 2.125
v -0.93 0.335 2.125
v -0.93 0.335 2.375
v -0.93 0.28 2.375
usemtl material_8
f 273 274 275 276
v 0.93 0.28 2.125
v 0.93 0.28 2.375
v 0.93 0.335 2.375
v 0.93 0.335 2.125
usemtl material_9
f 277 278 279 280
v -0.9874999999999999 0.4 2.03
v -0.9325 0.4 2.03
v -0.9325 0.4 2.57
v -0.9874999999999999 0.4 2.57
usemtl material_19
f 281 282 283 284
v -0.9874999999999999 0.15 2.03
v -0.9325 0.15 2.03
v -0.9325 0.4 2.03
v -0.9874999999999999 0.4 2.03
usemtl material_20
f 285 286 287 288
v -0.9874999999999999 0.15 2.57
v -0.9874999999999999 0.4 2.57
v -0.9325 0.4 2.57
v -0.9325 0.15 2.57
usemtl material_21
f 289 290 291 292
v -0.9874999999999999 0.15 2.03
v -0.9874999999999999 0.4 2.03
v -0.9874999999999999 0.4 2.57
v -0.9874999999999999 0.15 2.57
usemtl material_22
f 293 294 295 296
v -0.9325 0.15 2.03
v -0.9325 0.15 2.57
v -0.9325 0.4 2.57
v -0.9325 0.4 2.03
usemtl material_23
f 297 298 299 300
v 0.9325 0.4 2.03
v 0.9874999999999999 0.4 2.03
v 0.9874999999999999 0.4 2.57
v 0.9325 0.4 2.57
usemtl material_19
f 301 302 303 304
v 0.9325 0.15 2.03
v 0.9874999999999999 0.15 2.03
v 0.9874999999999999 0.4 2.03
v 0.9325 0.4 2.03
usemtl material_20
f 305 306 307 308
v 0.9325 0.15 2.57
v 0.9325 0.4 2.57
v 0.9874999999999999 0.4 2.57
v 0.9874999999999999 0.15 2.57
usemtl material_21
f 309 310 311 312
v 0.9325 0.15 2.03
v 0.9325 0.4 2.03
v 0.9325 0.4 2.57
v 0.9325 0.15 2.57
usemtl material_22
f 313 314 315 316
v 0.9874999999999999 0.15 2.03
v 0.9874999999999999 0.15 2.57
v 0.9874999999999999 0.4 2.57
v 0.9874999999999999 0.4 2.03
usemtl material_23
f 317 318 319 320
v -0.53 1.1 -2.105
v -0.47 1.1 -2.105
v -0.47 1.1 -1.975
v -0.53 1.1 -1.975
usemtl material_0
f 321 322 323 324
v -0.53 0.45 -2.105
v -0.47 0.45 -2.105
v -0.47 1.1 -2.105
v -0.53 1.1 -2.105
usemtl material_1
f 325 326 327 328
v -0.53 0.45 -1.975
v -0.53 1.1 -1.975
v -0.47 1.1 -1.975
v -0.47 0.45 -1.975
usemtl material_2
f 329 330 331 332
v -0.53 0.45 -2.105
v -0.53 1.1 -2.105
v -0.53 1.1 -1.975
v -0.53 0.45 -1.975
usemtl material_3
f 333 334 335 336
v -0.47 0.45 -2.105
v -0.47 0.45 -1.975
v -0.47 1.1 -1.975
v -0.47 1.1 -2.105
usemtl material_4
f 337 338 339 340
v 0.47 1.1 -2.105
v 0.53 1.1 -2.105
v 0.53 1.1 -1.975
v 0.47 1.1 -1.975
usemtl material_0
f 341 342 343 344
v 0.47 0.45 -2.105
v 0.53 0.45 -2.105
v 0.53 1.1 -2.105
v 0.47 1.1 -2.105
usemtl material_1
f 345 346 347 348
v 0.47 0.45 -1.975
v 0.47 1.1 -1.975
v 0.53 1.1 -1.975
v 0.53 0.45 -1.975
usemtl material_2
f 349 350 351 352
v 0.47 0.45 -2.105
v 0.47 1.1 -2.105
v 0.47 1.1 -1.975
v 0.47 0.45 -1.975
usemtl material_3
f 353 354 355 356
v 0.53 0.45 -2.105
v 0.53 0.45 -1.975
v 0.53 1.1 -1.975
v 0.53 1.1 -2.105
usemtl material_4
f 357 358 359 360
v -0.8 1.1300000000000001 -2.355
v 0.8 1.1300000000000001 -2.355
v 0.8 1.1300000000000001 -1.8850000000000002
v -0.8 1.1300000000000001 -1.8850000000000002
usemtl material_5
f 361 362 363 364
v -0.8 1.05 -2.355
v 0.8 1.05 -2.355
v 0.8 1.1300000000000001 -2.355
v -0.8 1.1300000000000001 -2.355
usemtl material_6
f 365 366 367 368
v -0.8 1.05 -1.8850000000000002
v -0.8 1.1300000000000001 -1.8850000000000002
v 0.8 1.1300000000000001 -1.8850000000000002
v 0.8 1.05 -1.8850000000000002
usemtl material_7
f 369 370 371 372
v -0.8 1.05 -2.355
v -0.8 1.1300000000000001 -2.355
v -0.8 1.1300000000000001 -1.8850000000000002
v -0.8 1.05 -1.8850000000000002
usemtl material_8
f 373 374 375 376
v 0.8 1.05 -2.355
v 0.8 1.05 -1.8850000000000002
v 0.8 1.1300000000000001 -1.8850000000000002
v 0.8 1.1300000000000001 -2.355
usemtl material_9
f 377 378 379 380
v -0.8 1.23 -2.31
v 0.8 1.23 -2.31
v 0.8 1.23 -2.11
v -0.8 1.23 -2.11
usemtl material_0
f 381 382 383 384
v -0.8 1.17 -2.31
v 0.8 1.17 -2.31
v 0.8 1.23 -2.31
v -0.8 1.23 -2.31
usemtl material_1
f 385 386 387 388
v -0.8 1.17 -2.11
v -0.8 1.23 -2.11
v 0.8 1.23 -2.11
v 0.8 1.17 -2.11
usemtl material_2
f 389 390 391 392
v -0.8 1.17 -2.31
v -0.8 1.23 -2.31
v -0.8 1.23 -2.11
v -0.8 1.17 -2.11
usemtl material_3
f 393 394 395 396
v 0.8 1.17 -2.31
v 0.8 1.17 -2.11
v 0.8 1.23 -2.11
v 0.8 1.23 -2.31
usemtl material_4
f 397 398 399 400
v -0.8524999999999999 1.29 -2.395
v -0.8075 1.29 -2.395
v -0.8075 1.29 -1.8450000000000002
v -0.8524999999999999 1.29 -1.8450000000000002
usemtl material_19
f 401 402 403 404
v -0.8524999999999999 0.79 -2.395
v -0.8075 0.79 -2.395
v -0.8075 1.29 -2.395
v -0.8524999999999999 1.29 -2.395
usemtl material_20
f 405 406 407 408
v -0.8524999999999999 0.79 -1.8450000000000002
v -0.8524999999999999 1.29 -1.8450000000000002
v -0.8075 1.29 -1.8450000000000002
v -0.8075 0.79 -1.8450000000000002
usemtl material_21
f 409 410 411 412
v -0.8524999999999999 0.79 -2.395
v -0.8524999999999999 1.29 -2.395
v -0.8524999999999999 1.29 -1.8450000000000002
v -0.8524999999999999 0.79 -1.8450000000000002
usemtl material_22
f 413 414 415 416
v -0.8075 0.79 -2.395
v -0.8075 0.79 -1.8450000000000002
v -0.8075 1.29 -1.8450000000000002
v -0.8075 1.29 -2.395
usemtl material_23
f 417 418 419 420
v 0.8075 1.29 -2.395
v 0.8524999999999999 1.29 -2.395
v 0.8524999999999999 1.29 -1.8450000000000002
v 0.8075 1.29 -1.8450000000000002
usemtl material_19
f 421 422 423 424
v 0.8075 0.79 -2.395
v 0.8524999999999999 0.79 -2.395
v 0.8524999999999999 1.29 -2.395
v 0.8075 1.29 -2.395
usemtl material_20
f 425 426 427 428
v 0.8075 0.79 -1.8450000000000002
v 0.8075 1.29 -1.8450000000000002
v 0.8524999999999999 1.29 -1.8450000000000002
v 0.8524999999999999 0.79 -1.8450000000000002
usemtl material_21
f 429 430 431 432
v 0.8075 0.79 -2.395
v 0.8075 1.29 -2.395
v 0.8075 1.29 -1.8450000000000002
v 0.8075 0.79 -1.8450000000000002
usemtl material_22
f 433 434 435 436
v 0.8524999999999999 0.79 -2.395
v 0.8524999999999999 0.79 -1.8450000000000002
v 0.8524999999999999 1.29 -1.8450000000000002
v 0.8524999999999999 1.29 -2.395
usemtl material_23
f 437 438 439 440
v -0.8951999999999999 0.41 -1.52
v -0.19519999999999993 0.41 -1.52
v -0.19519999999999993 0.41 -1.44
v -0.8951999999999999 0.41 -1.44
usemtl material_0
f 441 442 443 444
v -0.8951999999999999 0.36 -1.52
v -0.19519999999999993 0.36 -1.52
v -0.19519999999999993 0.41 -1.52
v -0.8951999999999999 0.41 -1.52
usemtl material_1
f 445 446 447 448
v -0.8951999999999999 0.36 -1.44
v -0.8951999999999999 0.41 -1.44
v -0.19519999999999993 0.41 -1.44
v -0.19519999999999993 0.36 -1.44
usemtl material_2
f 449 450 451 452
v -0.8951999999999999 0.36 -1.52
v -0.8951999999999999 0.41 -1.52
v -0.8951999999999999 0.41 -1.44
v -0.8951999999999999 0.36 -1.44
usemtl material_3
f 453 454 455 456
v -0.19519999999999993 0.36 -1.52
v -0.19519999999999993 0.36 -1.44
v -0.19519999999999993 0.41 -1.44
v -0.19519999999999993 0.41 -1.52
usemtl material_4
f 457 458 459 460
v -0.8951999999999999 0.53 -1.64
v -0.19519999999999993 0.53 -1.64
v -0.19519999999999993 0.53 -1.5799999999999998
v -0.8951999999999999 0.53 -1.5799999999999998
usemtl material_0
f 461 462 463 464
v -0.8951999999999999 0.49 -1.64
v -0.19519999999999993 0.49 -1.64
v -0.19519999999999993 0.53 -1.64
v -0.8951999999999999 0.53 -1.64
usemtl material_1
f 465 466 467 468
v -0.8951999999999999 0.49 -1.5799999999999998
v -0.8951999999999999 0.53 -1.5799999999999998
v -0.19519999999999993 0.53 -1.5799999999999998
v -0.19519999999999993 0.49 -1.5799999999999998
usemtl material_2
f 469 470 471 472
v -0.8951999999999999 0.49 -1.64
v -0.8951999999999999 0.53 -1.64
v -0.8951999999999999 0.53 -1.5799999999999998
v -0.8951999999999999 0.49 -1.5799999999999998
usemtl material_3
f 473 474 475 476
v -0.19519999999999993 0.49 -1.64
v -0.19519999999999993 0.49 -1.5799999999999998
v -0.19519999999999993 0.53 -1.5799999999999998
v -0.19519999999999993 0.53 -1.64
usemtl material_4
f 477 478 479 480
v -1.125 0.4 -1.1099999999999999
v -0.7549999999999999 0.4 -1.1099999999999999
v -0.7549999999999999 0.5605369834734966 -1.146641518876105
v -1.125 0.5605369834734966 -1.146641518876105
usemtl material_24
f 481 482 483 484
v -1.125 0.5605369834734966 -1.146641518876105
v -0.7549999999999999 0.5605369834734966 -1.146641518876105
v -0.7549999999999999 0.6892776485131711 -1.2493087733122685
v -1.125 0.6892776485131711 -1.2493087733122685
usemtl material_24
f 485 486 487 488
v -1.125 0.6892776485131711 -1.2493087733122685
v -0.7549999999999999 0.6892776485131711 -1.2493087733122685
v -0.7549999999999999 0.7607233275072748 -1.3976672544361637
v -1.125 0.7607233275072748 -1.3976672544361637
usemtl material_24
f 489 490 491 492
v -1.125 0.7607233275072748 -1.3976672544361637
v -0.7549999999999999 0.7607233275072748 -1.3976672544361637
v -0.7549999999999999 0.7607233275072748 -1.5623327455638363
v -1.125 0.7607233275072748 -1.5623327455638363
usemtl material_24
f 493 494 495 496
v -1.125 0.7607233275072748 -1.5623327455638363
v -0.7549999999999999 0.7607233275072748 -1.5623327455638363
v -0.7549999999999999 0.6892776485131711 -1.7106912266877314
v -1.125 0.6892776485131711 -1.7106912266877314
usemtl material_24
f 497 498 499 500
v -1.125 0.6892776485131711 -1.7106912266877314
v -0.7549999999999999 0.6892776485131711 -1.7106912266877314
v -0.7549999999999999 0.5605369834734966 -1.813358481123895
v -1.125 0.5605369834734966 -1.813358481123895
usemtl material_24
f 501 502 503 504
v -1.125 0.5605369834734966 -1.813358481123895
v -0.7549999999999999 0.5605369834734966 -1.813358481123895
v -0.7549999999999999 0.4000000000000001 -1.85
v -1.125 0.4000000000000001 -1.85
usemtl material_24
f 505 506 507 508
v -1.125 0.4000000000000001 -1.85
v -0.7549999999999999 0.4000000000000001 -1.85
v -0.7549999999999999 0.23946301652650356 -1.813358481123895
v -1.125 0.23946301652650356 -1.813358481123895
usemtl material_25
f 509 510 511 512
v -1.125 0.23946301652650356 -1.813358481123895
v -0.7549999999999999 0.23946301652650356 -1.813358481123895
v -0.7549999999999999 0.11072235148682902 -1.7106912266877314
v -1.125 0.11072235148682902 -1.7106912266877314
usemtl material_25
f 513 514 515 516
v -1.125 0.11072235148682902 -1.7106912266877314
v -0.7549999999999999 0.11072235148682902 -1.7106912266877314
v -0.7549999999999999 0.03927667249272526 -1.5623327455638363
v -1.125 0.03927667249272526 -1.5623327455638363
usemtl material_25
f 517 518 519 520
v -1.125 0.03927667249272526 -1.5623327455638363
v -0.7549999999999999 0.03927667249272526 -1.5623327455638363
v -0.7549999999999999 0.03927667249272526 -1.3976672544361637
v -1.125 0.03927667249272526 -1.3976672544361637
usemtl material_25
f 521 522 523 524
v -1.125 0.03927667249272526 -1.3976672544361637
v -0.7549999999999999 0.03927667249272526 -1.3976672544361637
v -0.7549999999999999 0.11072235148682896 -1.2493087733122685
v -1.125 0.11072235148682896 -1.2493087733122685
usemtl material_25
f 525 526 527 528
v -1.125 0.11072235148682896 -1.2493087733122685
v -0.7549999999999999 0.11072235148682896 -1.2493087733122685
v -0.7549999999999999 0.23946301652650342 -1.146641518876105
v -1.125 0.23946301652650342 -1.146641518876105
usemtl material_25
f 529 530 531 532
v -1.125 0.23946301652650342 -1.146641518876105
v -0.7549999999999999 0.23946301652650342 -1.146641518876105
v -0.7549999999999999 0.3999999999999999 -1.1099999999999999
v -1.125 0.3999999999999999 -1.1099999999999999
usemtl material_25
f 533 534 535 536
v -1.125 0.4 -1.1099999999999999
v -1.125 0.5605369834734966 -1.146641518876105
v -1.125 0.6892776485131711 -1.2493087733122685
v -1.125 0.7607233275072748 -1.3976672544361637
v -1.125 0.7607233275072748 -1.5623327455638363
v -1.125 0.6892776485131711 -1.7106912266877314
v -1.125 0.5605369834734966 -1.813358481123895
v -1.125 0.4000000000000001 -1.85
v -1.125 0.23946301652650356 -1.813358481123895
v -1.125 0.11072235148682902 -1.7106912266877314
v -1.125 0.03927667249272526 -1.5623327455638363
v -1.125 0.03927667249272526 -1.3976672544361637
v -1.125 0.11072235148682896 -1.2493087733122685
v -1.125 0.23946301652650342 -1.146641518876105
usemtl material_26
f 537 538 539 540 541 542 543 544 545 546 547 548 549 550
v -1.127 0.4 -1.205
v -1.127 0.5193180282573285 -1.2322335613268347
v -1.127 0.6150036576787082 -1.3085403044888482
v -1.127 0.6681051758500016 -1.4188067431620135
v -1.127 0.6681051758500016 -1.5411932568379865
v -1.127 0.6150036576787082 -1.6514596955111518
v -1.127 0.5193180282573285 -1.7277664386731653
v -1.127 0.4000000000000001 -1.755
v -1.127 0.28068197174267157 -1.7277664386731653
v -1.127 0.18499634232129183 -1.6514596955111518
v -1.127 0.13189482414999848 -1.5411932568379865
v -1.127 0.13189482414999848 -1.4188067431620135
v -1.127 0.18499634232129178 -1.3085403044888482
v -1.127 0.28068197174267145 -1.2322335613268347
usemtl material_27
f 551 552 553 554 555 556 557 558 559 560 561 562 563 564
v -1.129 0.4 -1.2349999999999999
v -1.129 0.5063015160838018 -1.2592626273639074
v -1.129 0.5915487132046673 -1.3272449985446102
v -1.129 0.6388573384845468 -1.425482371180703
v -1.129 0.6388573384845468 -1.534517628819297
v -1.129 0.5915487132046673 -1.6327550014553898
v -1.129 0.5063015160838018 -1.7007373726360926
v -1.129 0.4000000000000001 -1.725
v -1.129 0.2936984839161983 -1.7007373726360926
v -1.129 0.20845128679533276 -1.6327550014553898
v -1.129 0.16114266151545323 -1.534517628819297
v -1.129 0.16114266151545323 -1.425482371180703
v -1.129 0.2084512867953327 -1.3272449985446104
v -1.129 0.29369848391619824 -1.2592626273639074
usemtl material_28
f 565 566 567 568 569 570 571 572 573 574 575 576 577 578
v -1.133 0.4 -1.3399999999999999
v -1.133 0.4822899353209463 -1.3667376207875073
v -1.133 0.5331479122813215 -1.4367376207875073
v -1.133 0.5331479122813215 -1.5232623792124926
v -1.133 0.4822899353209463 -1.5932623792124927
v -1.133 0.4 -1.62
v -1.133 0.31771006467905377 -1.5932623792124927
v -1.133 0.2668520877186785 -1.5232623792124926
v -1.133 0.2668520877186785 -1.4367376207875073
v -1.133 0.3177100646790537 -1.3667376207875073
usemtl material_29
f 579 580 581 582 583 584 585 586 587 588
v -0.7549999999999999 0.4 -1.1099999999999999
v -0.7549999999999999 0.5605369834734966 -1.146641518876105
v -0.7549999999999999 0.6892776485131711 -1.2493087733122685
v -0.7549999999999999 0.7607233275072748 -1.3976672544361637
v -0.7549999999999999 0.7607233275072748 -1.5623327455638363
v -0.7549999999999999 0.6892776485131711 -1.7106912266877314
v -0.7549999999999999 0.5605369834734966 -1.813358481123895
v -0.7549999999999999 0.4000000000000001 -1.85
v -0.7549999999999999 0.23946301652650356 -1.813358481123895
v -0.7549999999999999 0.11072235148682902 -1.7106912266877314
v -0.7549999999999999 0.03927667249272526 -1.5623327455638363
v -0.7549999999999999 0.03927667249272526 -1.3976672544361637
v -0.7549999999999999 0.11072235148682896 -1.2493087733122685
v -0.7549999999999999 0.23946301652650342 -1.146641518876105
usemtl material_26
f 589 590 591 592 593 594 595 596 597 598 599 600 601 602
v -0.7529999999999999 0.4 -1.205
v -0.7529999999999999 0.5193180282573285 -1.2322335613268347
v -0.7529999999999999 0.6150036576787082 -1.3085403044888482
v -0.7529999999999999 0.6681051758500016 -1.4188067431620135
v -0.7529999999999999 0.6681051758500016 -1.5411932568379865
v -0.7529999999999999 0.6150036576787082 -1.6514596955111518
v -0.7529999999999999 0.5193180282573285 -1.7277664386731653
v -0.7529999999999999 0.4000000000000001 -1.755
v -0.7529999999999999 0.28068197174267157 -1.7277664386731653
v -0.7529999999999999 0.18499634232129183 -1.6514596955111518
v -0.7529999999999999 0.13189482414999848 -1.5411932568379865
v -0.7529999999999999 0.13189482414999848 -1.4188067431620135
v -0.7529999999999999 0.18499634232129178 -1.3085403044888482
v -0.7529999999999999 0.28068197174267145 -1.2322335613268347
usemtl material_27
f 603 604 605 606 607 608 609 610 611 612 613 614 615 616
v -0.7509999999999999 0.4 -1.2349999999999999
v -0.7509999999999999 0.5063015160838018 -1.2592626273639074
v -0.7509999999999999 0.5915487132046673 -1.3272449985446102
v -0.7509999999999999 0.6388573384845468 -1.425482371180703
v -0.7509999999999999 0.6388573384845468 -1.534517628819297
v -0.7509999999999999 0.5915487132046673 -1.6327550014553898
v -0.7509999999999999 0.5063015160838018 -1.7007373726360926
v -0.7509999999999999 0.4000000000000001 -1.725
v -0.7509999999999999 0.2936984839161983 -1.7007373726360926
v -0.7509999999999999 0.20845128679533276 -1.6327550014553898
v -0.7509999999999999 0.16114266151545323 -1.534517628819297
v -0.7509999999999999 0.16114266151545323 -1.425482371180703
v -0.7509999999999999 0.2084512867953327 -1.3272449985446104
v -0.7509999999999999 0.29369848391619824 -1.2592626273639074
usemtl material_28
f 617 618 619 620 621 622 623 624 625 626 627 628 629 630
v -0.7469999999999999 0.4 -1.3399999999999999
v -0.7469999999999999 0.4822899353209463 -1.3667376207875073
v -0.7469999999999999 0.5331479122813215 -1.4367376207875073
v -0.7469999999999999 0.5331479122813215 -1.5232623792124926
v -0.7469999999999999 0.4822899353209463 -1.5932623792124927
v -0.7469999999999999 0.4 -1.62
v -0.7469999999999999 0.31771006467905377 -1.5932623792124927
v -0.7469999999999999 0.2668520877186785 -1.5232623792124926
v -0.7469999999999999 0.2668520877186785 -1.4367376207875073
v -0.7469999999999999 0.3177100646790537 -1.3667376207875073
usemtl material_29
f 631 632 633 634 635 636 637 638 639 640
v 0.19519999999999993 0.41 -1.52
v 0.8951999999999999 0.41 -1.52
v 0.8951999999999999 0.41 -1.44
v 0.19519999999999993 0.41 -1.44
usemtl material_0
f 641 642 643 644
v 0.19519999999999993 0.36 -1.52
v 0.8951999999999999 0.36 -1.52
v 0.8951999999999999 0.41 -1.52
v 0.19519999999999993 0.41 -1.52
usemtl material_1
f 645 646 647 648
v 0.19519999999999993 0.36 -1.44
v 0.19519999999999993 0.41 -1.44
v 0.8951999999999999 0.41 -1.44
v 0.8951999999999999 0.36 -1.44
usemtl material_2
f 649 650 651 652
v 0.19519999999999993 0.36 -1.52
v 0.19519999999999993 0.41 -1.52
v 0.19519999999999993 0.41 -1.44
v 0.19519999999999993 0.36 -1.44
usemtl material_3
f 653 654 655 656
v 0.8951999999999999 0.36 -1.52
v 0.8951999999999999 0.36 -1.44
v 0.8951999999999999 0.41 -1.44
v 0.8951999999999999 0.41 -1.52
usemtl material_4
f 657 658 659 660
v 0.19519999999999993 0.53 -1.64
v 0.8951999999999999 0.53 -1.64
v 0.8951999999999999 0.53 -1.5799999999999998
v 0.19519999999999993 0.53 -1.5799999999999998
usemtl material_0
f 661 662 663 664
v 0.19519999999999993 0.49 -1.64
v 0.8951999999999999 0.49 -1.64
v 0.8951999999999999 0.53 -1.64
v 0.19519999999999993 0.53 -1.64
usemtl material_1
f 665 666 667 668
v 0.19519999999999993 0.49 -1.5799999999999998
v 0.19519999999999993 0.53 -1.5799999999999998
v 0.8951999999999999 0.53 -1.5799999999999998
v 0.8951999999999999 0.49 -1.5799999999999998
usemtl material_2
f 669 670 671 672
v 0.19519999999999993 0.49 -1.64
v 0.19519999999999993 0.53 -1.64
v 0.19519999999999993 0.53 -1.5799999999999998
v 0.19519999999999993 0.49 -1.5799999999999998
usemtl material_3
f 673 674 675 676
v 0.8951999999999999 0.49 -1.64
v 0.8951999999999999 0.49 -1.5799999999999998
v 0.8951999999999999 0.53 -1.5799999999999998
v 0.8951999999999999 0.53 -1.64
usemtl material_4
f 677 678 679 680
v 0.7549999999999999 0.4 -1.1099999999999999
v 1.125 0.4 -1.1099999999999999
v 1.125 0.5605369834734966 -1.146641518876105
v 0.7549999999999999 0.5605369834734966 -1.146641518876105
usemtl material_24
f 681 682 683 684
v 0.7549999999999999 0.5605369834734966 -1.146641518876105
v 1.125 0.5605369834734966 -1.146641518876105
v 1.125 0.6892776485131711 -1.2493087733122685
v 0.7549999999999999 0.6892776485131711 -1.2493087733122685
usemtl material_24
f 685 686 687 688
v 0.7549999999999999 0.6892776485131711 -1.2493087733122685
v 1.125 0.6892776485131711 -1.2493087733122685
v 1.125 0.7607233275072748 -1.3976672544361637
v 0.7549999999999999 0.7607233275072748 -1.3976672544361637
usemtl material_24
f 689 690 691 692
v 0.7549999999999999 0.7607233275072748 -1.3976672544361637
v 1.125 0.7607233275072748 -1.3976672544361637
v 1.125 0.7607233275072748 -1.5623327455638363
v 0.7549999999999999 0.7607233275072748 -1.5623327455638363
usemtl material_24
f 693 694 695 696
v 0.7549999999999999 0.7607233275072748 -1.5623327455638363
v 1.125 0.7607233275072748 -1.5623327455638363
v 1.125 0.6892776485131711 -1.7106912266877314
v 0.7549999999999999 0.6892776485131711 -1.7106912266877314
usemtl material_24
f 697 698 699 700
v 0.7549999999999999 0.6892776485131711 -1.7106912266877314
v 1.125 0.6892776485131711 -1.7106912266877314
v 1.125 0.5605369834734966 -1.813358481123895
v 0.7549999999999999 0.5605369834734966 -1.813358481123895
usemtl material_24
f 701 702 703 704
v 0.7549999999999999 0.5605369834734966 -1.813358481123895
v 1.125 0.5605369834734966 -1.813358481123895
v 1.125 0.4000000000000001 -1.85
v 0.7549999999999999 0.4000000000000001 -1.85
usemtl material_24
f 705 706 707 708
v 0.7549999999999999 0.4000000000000001 -1.85
v 1.125 0.4000000000000001 -1.85
v 1.125 0.23946301652650356 -1.813358481123895
v 0.7549999999999999 0.23946301652650356 -1.813358481123895
usemtl material_25
f 709 710 711 712
v 0.7549999999999999 0.23946301652650356 -1.813358481123895
v 1.125 0.23946301652650356 -1.813358481123895
v 1.125 0.11072235148682902 -1.7106912266877314
v 0.7549999999999999 0.11072235148682902 -1.7106912266877314
usemtl material_25
f 713 714 715 716
v 0.7549999999999999 0.11072235148682902 -1.7106912266877314
v 1.125 0.11072235148682902 -1.7106912266877314
v 1.125 0.03927667249272526 -1.5623327455638363
v 0.7549999999999999 0.03927667249272526 -1.5623327455638363
usemtl material_25
f 717 718 719 720
v 0.7549999999999999 0.03927667249272526 -1.5623327455638363
v 1.125 0.03927667249272526 -1.5623327455638363
v 1.125 0.03927667249272526 -1.3976672544361637
v 0.7549999999999999 0.03927667249272526 -1.3976672544361637
usemtl material_25
f 721 722 723 724
v 0.7549999999999999 0.03927667249272526 -1.3976672544361637
v 1.125 0.03927667249272526 -1.3976672544361637
v 1.125 0.11072235148682896 -1.2493087733122685
v 0.7549999999999999 0.11072235148682896 -1.2493087733122685
usemtl material_25
f 725 726 727 728
v 0.7549999999999999 0.11072235148682896 -1.2493087733122685
v 1.125 0.11072235148682896 -1.2493087733122685
v 1.125 0.23946301652650342 -1.146641518876105
v 0.7549999999999999 0.23946301652650342 -1.146641518876105
usemtl material_25
f 729 730 731 732
v 0.7549999999999999 0.23946301652650342 -1.146641518876105
v 1.125 0.23946301652650342 -1.146641518876105
v 1.125 0.3999999999999999 -1.1099999999999999
v 0.7549999999999999 0.3999999999999999 -1.1099999999999999
usemtl material_25
f 733 734 735 736
v 0.7549999999999999 0.4 -1.1099999999999999
v 0.7549999999999999 0.5605369834734966 -1.146641518876105
v 0.7549999999999999 0.6892776485131711 -1.2493087733122685
v 0.7549999999999999 0.7607233275072748 -1.3976672544361637
v 0.7549999999999999 0.7607233275072748 -1.5623327455638363
v 0.7549999999999999 0.6892776485131711 -1.7106912266877314
v 0.7549999999999999 0.5605369834734966 -1.813358481123895
v 0.7549999999999999 0.4000000000000001 -1.85
v 0.7549999999999999 0.23946301652650356 -1.813358481123895
v 0.7549999999999999 0.11072235148682902 -1.7106912266877314
v 0.7549999999999999 0.03927667249272526 -1.5623327455638363
v 0.7549999999999999 0.03927667249272526 -1.3976672544361637
v 0.7549999999999999 0.11072235148682896 -1.2493087733122685
v 0.7549999999999999 0.23946301652650342 -1.146641518876105
usemtl material_26
f 737 738 739 740 741 742 743 744 745 746 747 748 749 750
v 0.7529999999999999 0.4 -1.205
v 0.7529999999999999 0.5193180282573285 -1.2322335613268347
v 0.7529999999999999 0.6150036576787082 -1.3085403044888482
v 0.7529999999999999 0.6681051758500016 -1.4188067431620135
v 0.7529999999999999 0.6681051758500016 -1.5411932568379865
v 0.7529999999999999 0.6150036576787082 -1.6514596955111518
v 0.7529999999999999 0.5193180282573285 -1.7277664386731653
v 0.7529999999999999 0.4000000000000001 -1.755
v 0.7529999999999999 0.28068197174267157 -1.7277664386731653
v 0.7529999999999999 0.18499634232129183 -1.6514596955111518
v 0.7529999999999999 0.13189482414999848 -1.5411932568379865
v 0.7529999999999999 0.13189482414999848 -1.4188067431620135
v 0.7529999999999999 0.18499634232129178 -1.3085403044888482
v 0.7529999999999999 0.28068197174267145 -1.2322335613268347
usemtl material_27
f 751 752 753 754 755 756 757 758 759 760 761 762 763 764
v 0.7509999999999999 0.4 -1.2349999999999999
v 0.7509999999999999 0.5063015160838018 -1.2592626273639074
v 0.7509999999999999 0.5915487132046673 -1.3272449985446102
v 0.7509999999999999 0.6388573384845468 -1.425482371180703
v 0.7509999999999999 0.6388573384845468 -1.534517628819297
v 0.7509999999999999 0.5915487132046673 -1.6327550014553898
v 0.7509999999999999 0.5063015160838018 -1.7007373726360926
v 0.7509999999999999 0.4000000000000001 -1.725
v 0.7509999999999999 0.2936984839161983 -1.7007373726360926
v 0.7509999999999999 0.20845128679533276 -1.6327550014553898
v 0.7509999999999999 0.16114266151545323 -1.534517628819297
v 0.7509999999999999 0.16114266151545323 -1.425482371180703
v 0.7509999999999999 0.2084512867953327 -1.3272449985446104
v 0.7509999999999999 0.29369848391619824 -1.2592626273639074
usemtl material_28
f 765 766 767 768 769 770 771 772 773 774 775 776 777 778
v 0.7469999999999999 0.4 -1.3399999999999999
v 0.7469999999999999 0.4822899353209463 -1.3667376207875073
v 0.7469999999999999 0.5331479122813215 -1.4367376207875073
v 0.7469999999999999 0.5331479122813215 -1.5232623792124926
v 0.7469999999999999 0.4822899353209463 -1.5932623792124927
v 0.7469999999999999 0.4 -1.62
v 0.7469999999999999 0.31771006467905377 -1.5932623792124927
v 0.7469999999999999 0.2668520877186785 -1.5232623792124926
v 0.7469999999999999 0.2668520877186785 -1.4367376207875073
v 0.7469999999999999 0.3177100646790537 -1.3667376207875073
usemtl material_29
f 779 780 781 782 783 784 785 786 787 788
v 1.125 0.4 -1.1099999999999999
v 1.125 0.5605369834734966 -1.146641518876105
v 1.125 0.6892776485131711 -1.2493087733122685
v 1.125 0.7607233275072748 -1.3976672544361637
v 1.125 0.7607233275072748 -1.5623327455638363
v 1.125 0.6892776485131711 -1.7106912266877314
v 1.125 0.5605369834734966 -1.813358481123895
v 1.125 0.4000000000000001 -1.85
v 1.125 0.23946301652650356 -1.813358481123895
v 1.125 0.11072235148682902 -1.7106912266877314
v 1.125 0.03927667249272526 -1.5623327455638363
v 1.125 0.03927667249272526 -1.3976672544361637
v 1.125 0.11072235148682896 -1.2493087733122685
v 1.125 0.23946301652650342 -1.146641518876105
usemtl material_26
f 789 790 791 792 793 794 795 796 797 798 799 800 801 802
v 1.127 0.4 -1.205
v 1.127 0.5193180282573285 -1.2322335613268347
v 1.127 0.6150036576787082 -1.3085403044888482
v 1.127 0.6681051758500016 -1.4188067431620135
v 1.127 0.6681051758500016 -1.5411932568379865
v 1.127 0.6150036576787082 -1.6514596955111518
v 1.127 0.5193180282573285 -1.7277664386731653
v 1.127 0.4000000000000001 -1.755
v 1.127 0.28068197174267157 -1.7277664386731653
v 1.127 0.18499634232129183 -1.6514596955111518
v 1.127 0.13189482414999848 -1.5411932568379865
v 1.127 0.13189482414999848 -1.4188067431620135
v 1.127 0.18499634232129178 -1.3085403044888482
v 1.127 0.28068197174267145 -1.2322335613268347
usemtl material_27
f 803 804 805 806 807 808 809 810 811 812 813 814 815 816
v 1.129 0.4 -1.2349999999999999
v 1.129 0.5063015160838018 -1.2592626273639074
v 1.129 0.5915487132046673 -1.3272449985446102
v 1.129 0.6388573384845468 -1.425482371180703
v 1.129 0.6388573384845468 -1.534517628819297
v 1.129 0.5915487132046673 -1.6327550014553898
v 1.129 0.5063015160838018 -1.7007373726360926
v 1.129 0.4000000000000001 -1.725
v 1.129 0.2936984839161983 -1.7007373726360926
v 1.129 0.20845128679533276 -1.6327550014553898
v 1.129 0.16114266151545323 -1.534517628819297
v 1.129 0.16114266151545323 -1.425482371180703
v 1.129 0.2084512867953327 -1.3272449985446104
v 1.129 0.29369848391619824 -1.2592626273639074
usemtl material_28
f 817 818 819 820 821 822 823 824 825 826 827 828 829 830
v 1.133 0.4 -1.3399999999999999
v 1.133 0.4822899353209463 -1.3667376207875073
v 1.133 0.5331479122813215 -1.4367376207875073
v 1.133 0.5331479122813215 -1.5232623792124926
v 1.133 0.4822899353209463 -1.5932623792124927
v 1.133 0.4 -1.62
v 1.133 0.31771006467905377 -1.5932623792124927
v 1.133 0.2668520877186785 -1.5232623792124926
v 1.133 0.2668520877186785 -1.4367376207875073
v 1.133 0.3177100646790537 -1.3667376207875073
usemtl material_29
f 831 832 833 834 835 836 837 838 839 840
v -0.8951999999999999 0.41 1.49
v -0.19519999999999993 0.41 1.49
v -0.19519999999999993 0.41 1.57
v -0.8951999999999999 0.41 1.57
usemtl material_0
f 841 842 843 844
v -0.8951999999999999 0.36 1.49
v -0.19519999999999993 0.36 1.49
v -0.19519999999999993 0.41 1.49
v -0.8951999999999999 0.41 1.49
usemtl material_1
f 845 846 847 848
v -0.8951999999999999 0.36 1.57
v -0.8951999999999999 0.41 1.57
v -0.19519999999999993 0.41 1.57
v -0.19519999999999993 0.36 1.57
usemtl material_2
f 849 850 851 852
v -0.8951999999999999 0.36 1.49
v -0.8951999999999999 0.41 1.49
v -0.8951999999999999 0.41 1.57
v -0.8951999999999999 0.36 1.57
usemtl material_3
f 853 854 855 856
v -0.19519999999999993 0.36 1.49
v -0.19519999999999993 0.36 1.57
v -0.19519999999999993 0.41 1.57
v -0.19519999999999993 0.41 1.49
usemtl material_4
f 857 858 859 860
v -0.8951999999999999 0.53 1.3699999999999999
v -0.19519999999999993 0.53 1.3699999999999999
v -0.19519999999999993 0.53 1.43
v -0.8951999999999999 0.53 1.43
usemtl material_0
f 861 862 863 864
v -0.8951999999999999 0.49 1.3699999999999999
v -0.19519999999999993 0.49 1.3699999999999999
v -0.19519999999999993 0.53 1.3699999999999999
v -0.8951999999999999 0.53 1.3699999999999999
usemtl material_1
f 865 866 867 868
v -0.8951999999999999 0.49 1.43
v -0.8951999999999999 0.53 1.43
v -0.19519999999999993 0.53 1.43
v -0.19519999999999993 0.49 1.43
usemtl material_2
f 869 870 871 872
v -0.8951999999999999 0.49 1.3699999999999999
v -0.8951999999999999 0.53 1.3699999999999999
v -0.8951999999999999 0.53 1.43
v -0.8951999999999999 0.49 1.43
usemtl material_3
f 873 874 875 876
v -0.19519999999999993 0.49 1.3699999999999999
v -0.19519999999999993 0.49 1.43
v -0.19519999999999993 0.53 1.43
v -0.19519999999999993 0.53 1.3699999999999999
usemtl material_4
f 877 878 879 880
v -1.125 0.4 1.9
v -0.7549999999999999 0.4 1.9
v -0.7549999999999999 0.5605369834734966 1.8633584811238952
v -1.125 0.5605369834734966 1.8633584811238952
usemtl material_24
f 881 882 883 884
v -1.125 0.5605369834734966 1.8633584811238952
v -0.7549999999999999 0.5605369834734966 1.8633584811238952
v -0.7549999999999999 0.6892776485131711 1.7606912266877315
v -1.125 0.6892776485131711 1.7606912266877315
usemtl material_24
f 885 886 887 888
v -1.125 0.6892776485131711 1.7606912266877315
v -0.7549999999999999 0.6892776485131711 1.7606912266877315
v -0.7549999999999999 0.7607233275072748 1.6123327455638363
v -1.125 0.7607233275072748 1.6123327455638363
usemtl material_24
f 889 890 891 892
v -1.125 0.7607233275072748 1.6123327455638363
v -0.7549999999999999 0.7607233275072748 1.6123327455638363
v -0.7549999999999999 0.7607233275072748 1.4476672544361637
v -1.125 0.7607233275072748 1.4476672544361637
usemtl material_24
f 893 894 895 896
v -1.125 0.7607233275072748 1.4476672544361637
v -0.7549999999999999 0.7607233275072748 1.4476672544361637
v -0.7549999999999999 0.6892776485131711 1.2993087733122686
v -1.125 0.6892776485131711 1.2993087733122686
usemtl material_24
f 897 898 899 900
v -1.125 0.6892776485131711 1.2993087733122686
v -0.7549999999999999 0.6892776485131711 1.2993087733122686
v -0.7549999999999999 0.5605369834734966 1.196641518876105
v -1.125 0.5605369834734966 1.196641518876105
usemtl material_24
f 901 902 903 904
v -1.125 0.5605369834734966 1.196641518876105
v -0.7549999999999999 0.5605369834734966 1.196641518876105
v -0.7549999999999999 0.4000000000000001 1.1600000000000001
v -1.125 0.4000000000000001 1.1600000000000001
usemtl material_24
f 905 906 907 908
v -1.125 0.4000000000000001 1.1600000000000001
v -0.7549999999999999 0.4000000000000001 1.1600000000000001
v -0.7549999999999999 0.23946301652650356 1.1966415188761048
v -1.125 0.23946301652650356 1.1966415188761048
usemtl material_25
f 909 910 911 912
v -1.125 0.23946301652650356 1.1966415188761048
v -0.7549999999999999 0.23946301652650356 1.1966415188761048
v -0.7549999999999999 0.11072235148682902 1.2993087733122686
v -1.125 0.11072235148682902 1.2993087733122686
usemtl material_25
f 913 914 915 916
v -1.125 0.11072235148682902 1.2993087733122686
v -0.7549999999999999 0.11072235148682902 1.2993087733122686
v -0.7549999999999999 0.03927667249272526 1.4476672544361637
v -1.125 0.03927667249272526 1.4476672544361637
usemtl material_25
f 917 918 919 920
v -1.125 0.03927667249272526 1.4476672544361637
v -0.7549999999999999 0.03927667249272526 1.4476672544361637
v -0.7549999999999999 0.03927667249272526 1.6123327455638363
v -1.125 0.03927667249272526 1.6123327455638363
usemtl material_25
f 921 922 923 924
v -1.125 0.03927667249272526 1.6123327455638363
v -0.7549999999999999 0.03927667249272526 1.6123327455638363
v -0.7549999999999999 0.11072235148682896 1.7606912266877313
v -1.125 0.11072235148682896 1.7606912266877313
usemtl material_25
f 925 926 927 928
v -1.125 0.11072235148682896 1.7606912266877313
v -0.7549999999999999 0.11072235148682896 1.7606912266877313
v -0.7549999999999999 0.23946301652650342 1.863358481123895
v -1.125 0.23946301652650342 1.863358481123895
usemtl material_25
f 929 930 931 932
v -1.125 0.23946301652650342 1.863358481123895
v -0.7549999999999999 0.23946301652650342 1.863358481123895
v -0.7549999999999999 0.3999999999999999 1.9
v -1.125 0.3999999999999999 1.9
usemtl material_25
f 933 934 935 936
v -1.125 0.4 1.9
v -1.125 0.5605369834734966 1.8633584811238952
v -1.125 0.6892776485131711 1.7606912266877315
v -1.125 0.7607233275072748 1.6123327455638363
v -1.125 0.7607233275072748 1.4476672544361637
v -1.125 0.6892776485131711 1.2993087733122686
v -1.125 0.5605369834734966 1.196641518876105
v -1.125 0.4000000000000001 1.1600000000000001
v -1.125 0.23946301652650356 1.1966415188761048
v -1.125 0.11072235148682902 1.2993087733122686
v -1.125 0.03927667249272526 1.4476672544361637
v -1.125 0.03927667249272526 1.6123327455638363
v -1.125 0.11072235148682896 1.7606912266877313
v -1.125 0.23946301652650342 1.863358481123895
usemtl material_26
f 937 938 939 940 941 942 943 944 945 946 947 948 949 950
v -1.127 0.4 1.8050000000000002
v -1.127 0.5193180282573285 1.7777664386731653
v -1.127 0.6150036576787082 1.7014596955111518
v -1.127 0.6681051758500016 1.5911932568379865
v -1.127 0.6681051758500016 1.4688067431620135
v -1.127 0.6150036576787082 1.3585403044888482
v -1.127 0.5193180282573285 1.2822335613268347
v -1.127 0.4000000000000001 1.255
v -1.127 0.28068197174267157 1.2822335613268347
v -1.127 0.18499634232129183 1.3585403044888482
v -1.127 0.13189482414999848 1.4688067431620135
v -1.127 0.13189482414999848 1.5911932568379865
v -1.127 0.18499634232129178 1.7014596955111516
v -1.127 0.28068197174267145 1.7777664386731653
usemtl material_27
f 951 952 953 954 955 956 957 958 959 960 961 962 963 964
v -1.129 0.4 1.775
v -1.129 0.5063015160838018 1.7507373726360926
v -1.129 0.5915487132046673 1.6827550014553898
v -1.129 0.6388573384845468 1.584517628819297
v -1.129 0.6388573384845468 1.475482371180703
v -1.129 0.5915487132046673 1.3772449985446102
v -1.129 0.5063015160838018 1.3092626273639074
v -1.129 0.4000000000000001 1.2850000000000001
v -1.129 0.2936984839161983 1.3092626273639074
v -1.129 0.20845128679533276 1.3772449985446102
v -1.129 0.16114266151545323 1.475482371180703
v -1.129 0.16114266151545323 1.584517628819297
v -1.129 0.2084512867953327 1.6827550014553898
v -1.129 0.29369848391619824 1.7507373726360926
usemtl material_28
f 965 966 967 968 969 970 971 972 973 974 975 976 977 978
v -1.133 0.4 1.67
v -1.133 0.4822899353209463 1.6432623792124927
v -1.133 0.5331479122813215 1.5732623792124927
v -1.133 0.5331479122813215 1.4867376207875074
v -1.133 0.4822899353209463 1.4167376207875073
v -1.133 0.4 1.3900000000000001
v -1.133 0.31771006467905377 1.4167376207875073
v -1.133 0.2668520877186785 1.4867376207875074
v -1.133 0.2668520877186785 1.5732623792124927
v -1.133 0.3177100646790537 1.6432623792124927
usemtl material_29
f 979 980 981 982 983 984 985 986 987 988
v -0.7549999999999999 0.4 1.9
v -0.7549999999999999 0.5605369834734966 1.8633584811238952
v -0.7549999999999999 0.6892776485131711 1.7606912266877315
v -0.7549999999999999 0.7607233275072748 1.6123327455638363
v -0.7549999999999999 0.7607233275072748 1.4476672544361637
v -0.7549999999999999 0.6892776485131711 1.2993087733122686
v -0.7549999999999999 0.5605369834734966 1.196641518876105
v -0.7549999999999999 0.4000000000000001 1.1600000000000001
v -0.7549999999999999 0.23946301652650356 1.1966415188761048
v -0.7549999999999999 0.11072235148682902 1.2993087733122686
v -0.7549999999999999 0.03927667249272526 1.4476672544361637
v -0.7549999999999999 0.03927667249272526 1.6123327455638363
v -0.7549999999999999 0.11072235148682896 1.7606912266877313
v -0.7549999999999999 0.23946301652650342 1.863358481123895
usemtl material_26
f 989 990 991 992 993 994 995 996 997 998 999 1000 1001 1002
v -0.7529999999999999 0.4 1.8050000000000002
v -0.7529999999999999 0.5193180282573285 1.7777664386731653
v -0.7529999999999999 0.6150036576787082 1.7014596955111518
v -0.7529999999999999 0.6681051758500016 1.5911932568379865
v -0.7529999999999999 0.6681051758500016 1.4688067431620135
v -0.7529999999999999 0.6150036576787082 1.3585403044888482
v -0.7529999999999999 0.5193180282573285 1.2822335613268347
v -0.7529999999999999 0.4000000000000001 1.255
v -0.7529999999999999 0.28068197174267157 1.2822335613268347
v -0.7529999999999999 0.18499634232129183 1.3585403044888482
v -0.7529999999999999 0.13189482414999848 1.4688067431620135
v -0.7529999999999999 0.13189482414999848 1.5911932568379865
v -0.7529999999999999 0.18499634232129178 1.7014596955111516
v -0.7529999999999999 0.28068197174267145 1.7777664386731653
usemtl material_27
f 1003 1004 1005 1006 1007 1008 1009 1010 1011 1012 1013 1014 1015 1016
v -0.7509999999999999 0.4 1.775
v -0.7509999999999999 0.5063015160838018 1.7507373726360926
v -0.7509999999999999 0.5915487132046673 1.6827550014553898
v -0.7509999999999999 0.6388573384845468 1.584517628819297
v -0.7509999999999999 0.6388573384845468 1.475482371180703
v -0.7509999999999999 0.5915487132046673 1.3772449985446102
v -0.7509999999999999 0.5063015160838018 1.3092626273639074
v -0.7509999999999999 0.4000000000000001 1.2850000000000001
v -0.7509999999999999 0.2936984839161983 1.3092626273639074
v -0.7509999999999999 0.20845128679533276 1.3772449985446102
v -0.7509999999999999 0.16114266151545323 1.475482371180703
v -0.7509999999999999 0.16114266151545323 1.584517628819297
v -0.7509999999999999 0.2084512867953327 1.6827550014553898
v -0.7509999999999999 0.29369848391619824 1.7507373726360926
usemtl material_28
f 1017 1018 1019 1020 1021 1022 1023 1024 1025 1026 1027 1028 1029 1030
v -0.7469999999999999 0.4 1.67
v -0.7469999999999999 0.4822899353209463 1.6432623792124927
v -0.7469999999999999 0.5331479122813215 1.5732623792124927
v -0.7469999999999999 0.5331479122813215 1.4867376207875074
v -0.7469999999999999 0.4822899353209463 1.4167376207875073
v -0.7469999999999999 0.4 1.3900000000000001
v -0.7469999999999999 0.31771006467905377 1.4167376207875073
v -0.7469999999999999 0.2668520877186785 1.4867376207875074
v -0.7469999999999999 0.2668520877186785 1.5732623792124927
v -0.7469999999999999 0.3177100646790537 1.6432623792124927
usemtl material_29
f 1031 1032 1033 1034 1035 1036 1037 1038 1039 1040
v 0.19519999999999993 0.41 1.49
v 0.8951999999999999 0.41 1.49
v 0.8951999999999999 0.41 1.57
v 0.19519999999999993 0.41 1.57
usemtl material_0
f 1041 1042 1043 1044
v 0.19519999999999993 0.36 1.49
v 0.8951999999999999 0.36 1.49
v 0.8951999999999999 0.41 1.49
v 0.19519999999999993 0.41 1.49
usemtl material_1
f 1045 1046 1047 1048
v 0.19519999999999993 0.36 1.57
v 0.19519999999999993 0.41 1.57
v 0.8951999999999999 0.41 1.57
v 0.8951999999999999 0.36 1.57
usemtl material_2
f 1049 1050 1051 1052
v 0.19519999999999993 0.36 1.49
v 0.19519999999999993 0.41 1.49
v 0.19519999999999993 0.41 1.57
v 0.19519999999999993 0.36 1.57
usemtl material_3
f 1053 1054 1055 1056
v 0.8951999999999999 0.36 1.49
v 0.8951999999999999 0.36 1.57
v 0.8951999999999999 0.41 1.57
v 0.8951999999999999 0.41 1.49
usemtl material_4
f 1057 1058 1059 1060
v 0.19519999999999993 0.53 1.3699999999999999
v 0.8951999999999999 0.53 1.3699999999999999
v 0.8951999999999999 0.53 1.43
v 0.19519999999999993 0.53 1.43
usemtl material_0
f 1061 1062 1063 1064
v 0.19519999999999993 0.49 1.3699999999999999
v 0.8951999999999999 0.49 1.3699999999999999
v 0.8951999999999999 0.53 1.3699999999999999
v 0.19519999999999993 0.53 1.3699999999999999
usemtl material_1
f 1065 1066 1067 1068
v 0.19519999999999993 0.49 1.43
v 0.19519999999999993 0.53 1.43
v 0.8951999999999999 0.53 1.43
v 0.8951999999999999 0.49 1.43
usemtl material_2
f 1069 1070 1071 1072
v 0.19519999999999993 0.49 1.3699999999999999
v 0.19519999999999993 0.53 1.3699999999999999
v 0.19519999999999993 0.53 1.43
v 0.19519999999999993 0.49 1.43
usemtl material_3
f 1073 1074 1075 1076
v 0.8951999999999999 0.49 1.3699999999999999
v 0.8951999999999999 0.49 1.43
v 0.8951999999999999 0.53 1.43
v 0.8951999999999999 0.53 1.3699999999999999
usemtl material_4
f 1077 1078 1079 1080
v 0.7549999999999999 0.4 1.9
v 1.125 0.4 1.9
v 1.125 0.5605369834734966 1.8633584811238952
v 0.7549999999999999 0.5605369834734966 1.8633584811238952
usemtl material_24
f 1081 1082 1083 1084
v 0.7549999999999999 0.5605369834734966 1.8633584811238952
v 1.125 0.5605369834734966 1.8633584811238952
v 1.125 0.6892776485131711 1.7606912266877315
v 0.7549999999999999 0.6892776485131711 1.7606912266877315
usemtl material_24
f 1085 1086 1087 1088
v 0.7549999999999999 0.6892776485131711 1.7606912266877315
v 1.125 0.6892776485131711 1.7606912266877315
v 1.125 0.7607233275072748 1.6123327455638363
v 0.7549999999999999 0.7607233275072748 1.6123327455638363
usemtl material_24
f 1089 1090 1091 1092
v 0.7549999999999999 0.7607233275072748 1.6123327455638363
v 1.125 0.7607233275072748 1.6123327455638363
v 1.125 0.7607233275072748 1.4476672544361637
v 0.7549999999999999 0.7607233275072748 1.4476672544361637
usemtl material_24
f 1093 1094 1095 1096
v 0.7549999999999999 0.7607233275072748 1.4476672544361637
v 1.125 0.7607233275072748 1.4476672544361637
v 1.125 0.6892776485131711 1.2993087733122686
v 0.7549999999999999 0.6892776485131711 1.2993087733122686
usemtl material_24
f 1097 1098 1099 1100
v 0.7549999999999999 0.6892776485131711 1.2993087733122686
v 1.125 0.6892776485131711 1.2993087733122686
v 1.125 0.5605369834734966 1.196641518876105
v 0.7549999999999999 0.5605369834734966 1.196641518876105
usemtl material_24
f 1101 1102 1103 1104
v 0.7549999999999999 0.5605369834734966 1.196641518876105
v 1.125 0.5605369834734966 1.196641518876105
v 1.125 0.4000000000000001 1.1600000000000001
v 0.7549999999999999 0.4000000000000001 1.1600000000000001
usemtl material_24
f 1105 1106 1107 1108
v 0.7549999999999999 0.4000000000000001 1.1600000000000001
v 1.125 0.4000000000000001 1.1600000000000001
v 1.125 0.23946301652650356 1.1966415188761048
v 0.7549999999999999 0.23946301652650356 1.1966415188761048
usemtl material_25
f 1109 1110 1111 1112
v 0.7549999999999999 0.23946301652650356 1.1966415188761048
v 1.125 0.23946301652650356 1.1966415188761048
v 1.125 0.11072235148682902 1.2993087733122686
v 0.7549999999999999 0.11072235148682902 1.2993087733122686
usemtl material_25
f 1113 1114 1115 1116
v 0.7549999999999999 0.11072235148682902 1.2993087733122686
v 1.125 0.11072235148682902 1.2993087733122686
v 1.125 0.03927667249272526 1.4476672544361637
v 0.7549999999999999 0.03927667249272526 1.4476672544361637
usemtl material_25
f 1117 1118 1119 1120
v 0.7549999999999999 0.03927667249272526 1.4476672544361637
v 1.125 0.03927667249272526 1.4476672544361637
v 1.125 0.03927667249272526 1.6123327455638363
v 0.7549999999999999 0.03927667249272526 1.6123327455638363
usemtl material_25
f 1121 1122 1123 1124
v 0.7549999999999999 0.03927667249272526 1.6123327455638363
v 1.125 0.03927667249272526 1.6123327455638363
v 1.125 0.11072235148682896 1.7606912266877313
v 0.7549999999999999 0.11072235148682896 1.7606912266877313
usemtl material_25
f 1125 1126 1127 1128
v 0.7549999999999999 0.11072235148682896 1.7606912266877313
v 1.125 0.11072235148682896 1.7606912266877313
v 1.125 0.23946301652650342 1.863358481123895
v 0.7549999999999999 0.23946301652650342 1.863358481123895
usemtl material_25
f 1129 1130 1131 1132
v 0.7549999999999999 0.23946301652650342 1.863358481123895
v 1.125 0.23946301652650342 1.863358481123895
v 1.125 0.3999999999999999 1.9
v 0.7549999999999999 0.3999999999999999 1.9
usemtl material_25
f 1133 1134 1135 1136
v 0.7549999999999999 0.4 1.9
v 0.7549999999999999 0.5605369834734966 1.8633584811238952
v 0.7549999999999999 0.6892776485131711 1.7606912266877315
v 0.7549999999999999 0.7607233275072748 1.6123327455638363
v 0.7549999999999999 0.7607233275072748 1.4476672544361637
v 0.7549999999999999 0.6892776485131711 1.2993087733122686
v 0.7549999999999999 0.5605369834734966 1.196641518876105
v 0.7549999999999999 0.4000000000000001 1.1600000000000001
v 0.7549999999999999 0.23946301652650356 1.1966415188761048
v 0.7549999999999999 0.11072235148682902 1.2993087733122686
v 0.7549999999999999 0.03927667249272526 1.4476672544361637
v 0.7549999999999999 0.03927667249272526 1.6123327455638363
v 0.7549999999999999 0.11072235148682896 1.7606912266877313
v 0.7549999999999999 0.23946301652650342 1.863358481123895
usemtl material_26
f 1137 1138 1139 1140 1141 1142 1143 1144 1145 1146 1147 1148 1149 1150
v 0.7529999999999999 0.4 1.8050000000000002
v 0.7529999999999999 0.5193180282573285 1.7777664386731653
v 0.7529999999999999 0.6150036576787082 1.7014596955111518
v 0.7529999999999999 0.6681051758500016 1.5911932568379865
v 0.7529999999999999 0.6681051758500016 1.4688067431620135
v 0.7529999999999999 0.6150036576787082 1.3585403044888482
v 0.7529999999999999 0.5193180282573285 1.2822335613268347
v 0.7529999999999999 0.4000000000000001 1.255
v 0.7529999999999999 0.28068197174267157 1.2822335613268347
v 0.7529999999999999 0.18499634232129183 1.3585403044888482
v 0.7529999999999999 0.13189482414999848 1.4688067431620135
v 0.7529999999999999 0.13189482414999848 1.5911932568379865
v 0.7529999999999999 0.18499634232129178 1.7014596955111516
v 0.7529999999999999 0.28068197174267145 1.7777664386731653
usemtl material_27
f 1151 1152 1153 1154 1155 1156 1157 1158 1159 1160 1161 1162 1163 1164
v 0.7509999999999999 0.4 1.775
v 0.7509999999999999 0.5063015160838018 1.7507373726360926
v 0.7509999999999999 0.5915487132046673 1.6827550014553898
v 0.7509999999999999 0.6388573384845468 1.584517628819297
v 0.7509999999999999 0.6388573384845468 1.475482371180703
v 0.7509999999999999 0.5915487132046673 1.3772449985446102
v 0.7509999999999999 0.5063015160838018 1.3092626273639074
v 0.7509999999999999 0.4000000000000001 1.2850000000000001
v 0.7509999999999999 0.2936984839161983 1.3092626273639074
v 0.7509999999999999 0.20845128679533276 1.3772449985446102
v 0.7509999999999999 0.16114266151545323 1.475482371180703
v 0.7509999999999999 0.16114266151545323 1.584517628819297
v 0.7509999999999999 0.2084512867953327 1.6827550014553898
v 0.7509999999999999 0.29369848391619824 1.7507373726360926
usemtl material_28
f 1165 1166 1167 1168 1169 1170 1171 1172 1173 1174 1175 1176 1177 1178
v 0.7469999999999999 0.4 1.67
v 0.7469999999999999 0.4822899353209463 1.6432623792124927
v 0.7469999999999999 0.5331479122813215 1.5732623792124927
v 0.7469999999999999 0.5331479122813215 1.4867376207875074
v 0.7469999999999999 0.4822899353209463 1.4167376207875073
v 0.7469999999999999 0.4 1.3900000000000001
v 0.7469999999999999 0.31771006467905377 1.4167376207875073
v 0.7469999999999999 0.2668520877186785 1.4867376207875074
v 0.7469999999999999 0.2668520877186785 1.5732623792124927
v 0.7469999999999999 0.3177100646790537 1.6432623792124927
usemtl material_29
f 1179 1180 1181 1182 1183 1184 1185 1186 1187 1188
v 1.125 0.4 1.9
v 1.125 0.5605369834734966 1.8633584811238952
v 1.125 0.6892776485131711 1.7606912266877315
v 1.125 0.7607233275072748 1.6123327455638363
v 1.125 0.7607233275072748 1.4476672544361637
v 1.125 0.6892776485131711 1.2993087733122686
v 1.125 0.5605369834734966 1.196641518876105
v 1.125 0.4000000000000001 1.1600000000000001
v 1.125 0.23946301652650356 1.1966415188761048
v 1.125 0.11072235148682902 1.2993087733122686
v 1.125 0.03927667249272526 1.4476672544361637
v 1.125 0.03927667249272526 1.6123327455638363
v 1.125 0.11072235148682896 1.7606912266877313
v 1.125 0.23946301652650342 1.863358481123895
usemtl material_26
f 1189 1190 1191 1192 1193 1194 1195 1196 1197 1198 1199 1200 1201 1202
v 1.127 0.4 1.8050000000000002
v 1.127 0.5193180282573285 1.7777664386731653
v 1.127 0.6150036576787082 1.7014596955111518
v 1.127 0.6681051758500016 1.5911932568379865
v 1.127 0.6681051758500016 1.4688067431620135
v 1.127 0.6150036576787082 1.3585403044888482
v 1.127 0.5193180282573285 1.2822335613268347
v 1.127 0.4000000000000001 1.255
v 1.127 0.28068197174267157 1.2822335613268347
v 1.127 0.18499634232129183 1.3585403044888482
v 1.127 0.13189482414999848 1.4688067431620135
v 1.127 0.13189482414999848 1.5911932568379865
v 1.127 0.18499634232129178 1.7014596955111516
v 1.127 0.28068197174267145 1.7777664386731653
usemtl material_27
f 1203 1204 1205 1206 1207 1208 1209 1210 1211 1212 1213 1214 1215 1216
v 1.129 0.4 1.775
v 1.129 0.5063015160838018 1.7507373726360926
v 1.129 0.5915487132046673 1.6827550014553898
v 1.129 0.6388573384845468 1.584517628819297
v 1.129 0.6388573384845468 1.475482371180703
v 1.129 0.5915487132046673 1.3772449985446102
v 1.129 0.5063015160838018 1.3092626273639074
v 1.129 0.4000000000000001 1.2850000000000001
v 1.129 0.2936984839161983 1.3092626273639074
v 1.129 0.20845128679533276 1.3772449985446102
v 1.129 0.16114266151545323 1.475482371180703
v 1.129 0.16114266151545323 1.584517628819297
v 1.129 0.2084512867953327 1.6827550014553898
v 1.129 0.29369848391619824 1.7507373726360926
usemtl material_28
f 1217 1218 1219 1220 1221 1222 1223 1224 1225 1226 1227 1228 1229 1230
v 1.133 0.4 1.67
v 1.133 0.4822899353209463 1.6432623792124927
v 1.133 0.5331479122813215 1.5732623792124927
v 1.133 0.5331479122813215 1.4867376207875074
v 1.133 0.4822899353209463 1.4167376207875073
v 1.133 0.4 1.3900000000000001
v 1.133 0.31771006467905377 1.4167376207875073
v 1.133 0.2668520877186785 1.4867376207875074
v 1.133 0.2668520877186785 1.5732623792124927
v 1.133 0.3177100646790537 1.6432623792124927
usemtl material_29
f 1231 1232 1233 1234 1235 1236 1237 1238 1239 1240
v 0 0.79 0.22
v 0.26 0.79 0.22
v 0.1 0.39 2.4
v 0 0.39 2.4
usemtl material_30
f 1241 1242 1243 1244
